<svg width="565" height="110" viewBox="0 0 565 110" fill="none" xmlns="http://www.w3.org/2000/svg">
<path d="M236.024 47.576C233.368 47.576 230.792 47.224 228.296 46.52C225.832 45.784 223.848 44.84 222.344 43.688L224.984 37.832C226.424 38.888 228.136 39.736 230.12 40.376C232.104 41.016 234.088 41.336 236.072 41.336C238.28 41.336 239.912 41.016 240.968 40.376C242.024 39.704 242.552 38.824 242.552 37.736C242.552 36.936 242.232 36.28 241.592 35.768C240.984 35.224 240.184 34.792 239.192 34.472C238.232 34.152 236.92 33.8 235.256 33.416C232.696 32.808 230.6 32.2 228.968 31.592C227.336 30.984 225.928 30.008 224.744 28.664C223.592 27.32 223.016 25.528 223.016 23.288C223.016 21.336 223.544 19.576 224.6 18.008C225.656 16.408 227.24 15.144 229.352 14.216C231.496 13.288 234.104 12.824 237.176 12.824C239.32 12.824 241.416 13.08 243.464 13.592C245.512 14.104 247.304 14.84 248.84 15.8L246.44 21.704C243.336 19.944 240.232 19.064 237.128 19.064C234.952 19.064 233.336 19.416 232.28 20.12C231.256 20.824 230.744 21.752 230.744 22.904C230.744 24.056 231.336 24.92 232.52 25.496C233.736 26.04 235.576 26.584 238.04 27.128C240.6 27.736 242.696 28.344 244.328 28.952C245.96 29.56 247.352 30.52 248.504 31.832C249.688 33.144 250.28 34.92 250.28 37.16C250.28 39.08 249.736 40.84 248.648 42.44C247.592 44.008 245.992 45.256 243.848 46.184C241.704 47.112 239.096 47.576 236.024 47.576ZM288.137 20.792C291.369 20.792 293.929 21.752 295.817 23.672C297.737 25.56 298.697 28.408 298.697 32.216V47H291.209V33.368C291.209 31.32 290.777 29.8 289.913 28.808C289.081 27.784 287.881 27.272 286.313 27.272C284.553 27.272 283.161 27.848 282.137 29C281.113 30.12 280.601 31.8 280.601 34.04V47H273.113V33.368C273.113 29.304 271.481 27.272 268.217 27.272C266.489 27.272 265.113 27.848 264.089 29C263.065 30.12 262.553 31.8 262.553 34.04V47H255.065V21.176H262.217V24.152C263.177 23.064 264.345 22.232 265.721 21.656C267.129 21.08 268.665 20.792 270.329 20.792C272.153 20.792 273.801 21.16 275.273 21.896C276.745 22.6 277.929 23.64 278.825 25.016C279.881 23.672 281.209 22.632 282.809 21.896C284.441 21.16 286.217 20.792 288.137 20.792ZM317.978 47.384C315.258 47.384 312.81 46.824 310.634 45.704C308.49 44.552 306.81 42.968 305.594 40.952C304.378 38.936 303.77 36.648 303.77 34.088C303.77 31.528 304.378 29.24 305.594 27.224C306.81 25.208 308.49 23.64 310.634 22.52C312.81 21.368 315.258 20.792 317.978 20.792C320.698 20.792 323.13 21.368 325.274 22.52C327.418 23.64 329.098 25.208 330.314 27.224C331.53 29.24 332.138 31.528 332.138 34.088C332.138 36.648 331.53 38.936 330.314 40.952C329.098 42.968 327.418 44.552 325.274 45.704C323.13 46.824 320.698 47.384 317.978 47.384ZM317.978 41.24C319.898 41.24 321.466 40.6 322.682 39.32C323.93 38.008 324.554 36.264 324.554 34.088C324.554 31.912 323.93 30.184 322.682 28.904C321.466 27.592 319.898 26.936 317.978 26.936C316.058 26.936 314.474 27.592 313.226 28.904C311.978 30.184 311.354 31.912 311.354 34.088C311.354 36.264 311.978 38.008 313.226 39.32C314.474 40.6 316.058 41.24 317.978 41.24ZM349.432 47.384C346.712 47.384 344.264 46.824 342.088 45.704C339.944 44.552 338.264 42.968 337.048 40.952C335.832 38.936 335.224 36.648 335.224 34.088C335.224 31.528 335.832 29.24 337.048 27.224C338.264 25.208 339.944 23.64 342.088 22.52C344.264 21.368 346.712 20.792 349.432 20.792C352.152 20.792 354.584 21.368 356.728 22.52C358.872 23.64 360.552 25.208 361.768 27.224C362.984 29.24 363.592 31.528 363.592 34.088C363.592 36.648 362.984 38.936 361.768 40.952C360.552 42.968 358.872 44.552 356.728 45.704C354.584 46.824 352.152 47.384 349.432 47.384ZM349.432 41.24C351.352 41.24 352.92 40.6 354.136 39.32C355.384 38.008 356.008 36.264 356.008 34.088C356.008 31.912 355.384 30.184 354.136 28.904C352.92 27.592 351.352 26.936 349.432 26.936C347.512 26.936 345.928 27.592 344.68 28.904C343.432 30.184 342.808 31.912 342.808 34.088C342.808 36.264 343.432 38.008 344.68 39.32C345.928 40.6 347.512 41.24 349.432 41.24ZM385.253 45.752C384.517 46.296 383.605 46.712 382.517 47C381.461 47.256 380.341 47.384 379.157 47.384C376.085 47.384 373.701 46.6 372.005 45.032C370.341 43.464 369.509 41.16 369.509 38.12V27.512H365.525V21.752H369.509V15.464H376.997V21.752H383.429V27.512H376.997V38.024C376.997 39.112 377.269 39.96 377.813 40.568C378.389 41.144 379.189 41.432 380.213 41.432C381.397 41.432 382.405 41.112 383.237 40.472L385.253 45.752ZM405.152 20.792C408.352 20.792 410.928 21.752 412.88 23.672C414.864 25.592 415.856 28.44 415.856 32.216V47H408.368V33.368C408.368 31.32 407.92 29.8 407.024 28.808C406.128 27.784 404.832 27.272 403.136 27.272C401.248 27.272 399.744 27.864 398.624 29.048C397.504 30.2 396.944 31.928 396.944 34.232V47H389.456V11.384H396.944V23.864C397.936 22.872 399.136 22.12 400.544 21.608C401.952 21.064 403.488 20.792 405.152 20.792ZM425.476 47.384C424.164 47.384 423.06 46.936 422.164 46.04C421.268 45.144 420.82 44.024 420.82 42.68C420.82 41.304 421.268 40.2 422.164 39.368C423.06 38.504 424.164 38.072 425.476 38.072C426.788 38.072 427.892 38.504 428.788 39.368C429.684 40.2 430.132 41.304 430.132 42.68C430.132 44.024 429.684 45.144 428.788 46.04C427.892 46.936 426.788 47.384 425.476 47.384ZM435.734 13.4H443.51V47H435.734V13.4ZM458.444 19.736H447.692V13.4H476.972V19.736H466.22V47H458.444V19.736Z" fill="#6C5CE7"/>
<path d="M141.368 104.144C140.12 104.144 138.92 103.944 137.768 103.544C136.632 103.144 135.752 102.616 135.128 101.96L135.824 100.592C136.432 101.2 137.24 101.696 138.248 102.08C139.256 102.448 140.296 102.632 141.368 102.632C142.872 102.632 144 102.36 144.752 101.816C145.504 101.256 145.88 100.536 145.88 99.656C145.88 98.984 145.672 98.448 145.256 98.048C144.856 97.648 144.36 97.344 143.768 97.136C143.176 96.912 142.352 96.672 141.296 96.416C140.032 96.096 139.024 95.792 138.272 95.504C137.52 95.2 136.872 94.744 136.328 94.136C135.8 93.528 135.536 92.704 135.536 91.664C135.536 90.816 135.76 90.048 136.208 89.36C136.656 88.656 137.344 88.096 138.272 87.68C139.2 87.264 140.352 87.056 141.728 87.056C142.688 87.056 143.624 87.192 144.536 87.464C145.464 87.72 146.264 88.08 146.936 88.544L146.336 89.96C145.632 89.496 144.88 89.152 144.08 88.928C143.28 88.688 142.496 88.568 141.728 88.568C140.256 88.568 139.144 88.856 138.392 89.432C137.656 89.992 137.288 90.72 137.288 91.616C137.288 92.288 137.488 92.832 137.888 93.248C138.304 93.648 138.816 93.96 139.424 94.184C140.048 94.392 140.88 94.624 141.92 94.88C143.152 95.184 144.144 95.488 144.896 95.792C145.664 96.08 146.312 96.528 146.84 97.136C147.368 97.728 147.632 98.536 147.632 99.56C147.632 100.408 147.4 101.184 146.936 101.888C146.488 102.576 145.792 103.128 144.848 103.544C143.904 103.944 142.744 104.144 141.368 104.144ZM166.886 91.28C168.47 91.28 169.71 91.736 170.606 92.648C171.518 93.56 171.974 94.904 171.974 96.68V104H170.27V96.848C170.27 95.536 169.95 94.536 169.31 93.848C168.686 93.16 167.798 92.816 166.646 92.816C165.334 92.816 164.302 93.224 163.55 94.04C162.798 94.84 162.422 95.952 162.422 97.376V104H160.718V96.848C160.718 95.536 160.398 94.536 159.758 93.848C159.134 93.16 158.238 92.816 157.07 92.816C155.774 92.816 154.742 93.224 153.974 94.04C153.222 94.84 152.846 95.952 152.846 97.376V104H151.142V91.376H152.774V93.68C153.222 92.912 153.846 92.32 154.646 91.904C155.446 91.488 156.366 91.28 157.406 91.28C158.462 91.28 159.374 91.504 160.142 91.952C160.926 92.4 161.51 93.064 161.894 93.944C162.358 93.112 163.022 92.464 163.886 92C164.766 91.52 165.766 91.28 166.886 91.28ZM181.802 104.12C180.586 104.12 179.49 103.848 178.514 103.304C177.538 102.744 176.77 101.976 176.21 101C175.65 100.024 175.37 98.92 175.37 97.688C175.37 96.456 175.65 95.352 176.21 94.376C176.77 93.4 177.538 92.64 178.514 92.096C179.49 91.552 180.586 91.28 181.802 91.28C183.018 91.28 184.114 91.552 185.09 92.096C186.066 92.64 186.826 93.4 187.37 94.376C187.93 95.352 188.21 96.456 188.21 97.688C188.21 98.92 187.93 100.024 187.37 101C186.826 101.976 186.066 102.744 185.09 103.304C184.114 103.848 183.018 104.12 181.802 104.12ZM181.802 102.608C182.698 102.608 183.498 102.408 184.202 102.008C184.922 101.592 185.482 101.008 185.882 100.256C186.282 99.504 186.482 98.648 186.482 97.688C186.482 96.728 186.282 95.872 185.882 95.12C185.482 94.368 184.922 93.792 184.202 93.392C183.498 92.976 182.698 92.768 181.802 92.768C180.906 92.768 180.098 92.976 179.378 93.392C178.674 93.792 178.114 94.368 177.698 95.12C177.298 95.872 177.098 96.728 177.098 97.688C177.098 98.648 177.298 99.504 177.698 100.256C178.114 101.008 178.674 101.592 179.378 102.008C180.098 102.408 180.906 102.608 181.802 102.608ZM196.849 104.12C195.633 104.12 194.537 103.848 193.561 103.304C192.585 102.744 191.817 101.976 191.257 101C190.697 100.024 190.417 98.92 190.417 97.688C190.417 96.456 190.697 95.352 191.257 94.376C191.817 93.4 192.585 92.64 193.561 92.096C194.537 91.552 195.633 91.28 196.849 91.28C198.065 91.28 199.161 91.552 200.137 92.096C201.113 92.64 201.873 93.4 202.417 94.376C202.977 95.352 203.257 96.456 203.257 97.688C203.257 98.92 202.977 100.024 202.417 101C201.873 101.976 201.113 102.744 200.137 103.304C199.161 103.848 198.065 104.12 196.849 104.12ZM196.849 102.608C197.745 102.608 198.545 102.408 199.249 102.008C199.969 101.592 200.529 101.008 200.929 100.256C201.329 99.504 201.529 98.648 201.529 97.688C201.529 96.728 201.329 95.872 200.929 95.12C200.529 94.368 199.969 93.792 199.249 93.392C198.545 92.976 197.745 92.768 196.849 92.768C195.953 92.768 195.145 92.976 194.425 93.392C193.721 93.792 193.161 94.368 192.745 95.12C192.345 95.872 192.145 96.728 192.145 97.688C192.145 98.648 192.345 99.504 192.745 100.256C193.161 101.008 193.721 101.592 194.425 102.008C195.145 102.408 195.953 102.608 196.849 102.608ZM213.383 103.232C213.063 103.52 212.663 103.744 212.183 103.904C211.719 104.048 211.231 104.12 210.719 104.12C209.535 104.12 208.623 103.8 207.983 103.16C207.343 102.52 207.023 101.616 207.023 100.448V92.816H204.767V91.376H207.023V88.616H208.727V91.376H212.567V92.816H208.727V100.352C208.727 101.104 208.911 101.68 209.279 102.08C209.663 102.464 210.207 102.656 210.911 102.656C211.263 102.656 211.599 102.6 211.919 102.488C212.255 102.376 212.543 102.216 212.783 102.008L213.383 103.232ZM222.917 91.28C224.501 91.28 225.757 91.744 226.685 92.672C227.629 93.584 228.101 94.92 228.101 96.68V104H226.397V96.848C226.397 95.536 226.069 94.536 225.413 93.848C224.757 93.16 223.821 92.816 222.605 92.816C221.245 92.816 220.165 93.224 219.365 94.04C218.581 94.84 218.189 95.952 218.189 97.376V104H216.485V86.192H218.189V93.584C218.653 92.848 219.293 92.28 220.109 91.88C220.925 91.48 221.861 91.28 222.917 91.28ZM249.617 91.376L243.305 105.512C242.793 106.696 242.201 107.536 241.529 108.032C240.857 108.528 240.049 108.776 239.105 108.776C238.497 108.776 237.929 108.68 237.401 108.488C236.873 108.296 236.417 108.008 236.033 107.624L236.825 106.352C237.465 106.992 238.233 107.312 239.129 107.312C239.705 107.312 240.193 107.152 240.593 106.832C241.009 106.512 241.393 105.968 241.745 105.2L242.297 103.976L236.657 91.376H238.433L243.185 102.104L247.937 91.376H249.617ZM256.825 104.12C255.609 104.12 254.513 103.848 253.537 103.304C252.561 102.744 251.793 101.976 251.233 101C250.673 100.024 250.393 98.92 250.393 97.688C250.393 96.456 250.673 95.352 251.233 94.376C251.793 93.4 252.561 92.64 253.537 92.096C254.513 91.552 255.609 91.28 256.825 91.28C258.041 91.28 259.137 91.552 260.113 92.096C261.089 92.64 261.849 93.4 262.393 94.376C262.953 95.352 263.233 96.456 263.233 97.688C263.233 98.92 262.953 100.024 262.393 101C261.849 101.976 261.089 102.744 260.113 103.304C259.137 103.848 258.041 104.12 256.825 104.12ZM256.825 102.608C257.721 102.608 258.521 102.408 259.225 102.008C259.945 101.592 260.505 101.008 260.905 100.256C261.305 99.504 261.505 98.648 261.505 97.688C261.505 96.728 261.305 95.872 260.905 95.12C260.505 94.368 259.945 93.792 259.225 93.392C258.521 92.976 257.721 92.768 256.825 92.768C255.929 92.768 255.121 92.976 254.401 93.392C253.697 93.792 253.137 94.368 252.721 95.12C252.321 95.872 252.121 96.728 252.121 97.688C252.121 98.648 252.321 99.504 252.721 100.256C253.137 101.008 253.697 101.592 254.401 102.008C255.121 102.408 255.929 102.608 256.825 102.608ZM278.088 91.376V104H276.456V101.696C276.008 102.464 275.392 103.064 274.608 103.496C273.824 103.912 272.928 104.12 271.92 104.12C270.272 104.12 268.968 103.664 268.008 102.752C267.064 101.824 266.592 100.472 266.592 98.696V91.376H268.296V98.528C268.296 99.856 268.624 100.864 269.28 101.552C269.936 102.24 270.872 102.584 272.088 102.584C273.416 102.584 274.464 102.184 275.232 101.384C276 100.568 276.384 99.44 276.384 98V91.376H278.088ZM284.492 93.848C284.892 93 285.484 92.36 286.268 91.928C287.068 91.496 288.052 91.28 289.22 91.28V92.936L288.812 92.912C287.484 92.912 286.444 93.32 285.692 94.136C284.94 94.952 284.564 96.096 284.564 97.568V104H282.86V91.376H284.492V93.848ZM310.294 86.192V104H308.662V101.504C308.15 102.352 307.47 103 306.622 103.448C305.79 103.896 304.846 104.12 303.79 104.12C302.606 104.12 301.534 103.848 300.574 103.304C299.614 102.76 298.862 102 298.318 101.024C297.774 100.048 297.502 98.936 297.502 97.688C297.502 96.44 297.774 95.328 298.318 94.352C298.862 93.376 299.614 92.624 300.574 92.096C301.534 91.552 302.606 91.28 303.79 91.28C304.814 91.28 305.734 91.496 306.55 91.928C307.382 92.344 308.062 92.96 308.59 93.776V86.192H310.294ZM303.934 102.608C304.814 102.608 305.606 102.408 306.31 102.008C307.03 101.592 307.59 101.008 307.99 100.256C308.406 99.504 308.614 98.648 308.614 97.688C308.614 96.728 308.406 95.872 307.99 95.12C307.59 94.368 307.03 93.792 306.31 93.392C305.606 92.976 304.814 92.768 303.934 92.768C303.038 92.768 302.23 92.976 301.51 93.392C300.806 93.792 300.246 94.368 299.83 95.12C299.43 95.872 299.23 96.728 299.23 97.688C299.23 98.648 299.43 99.504 299.83 100.256C300.246 101.008 300.806 101.592 301.51 102.008C302.23 102.408 303.038 102.608 303.934 102.608ZM320.2 104.12C318.984 104.12 317.888 103.848 316.912 103.304C315.936 102.744 315.168 101.976 314.608 101C314.048 100.024 313.768 98.92 313.768 97.688C313.768 96.456 314.048 95.352 314.608 94.376C315.168 93.4 315.936 92.64 316.912 92.096C317.888 91.552 318.984 91.28 320.2 91.28C321.416 91.28 322.512 91.552 323.488 92.096C324.464 92.64 325.224 93.4 325.768 94.376C326.328 95.352 326.608 96.456 326.608 97.688C326.608 98.92 326.328 100.024 325.768 101C325.224 101.976 324.464 102.744 323.488 103.304C322.512 103.848 321.416 104.12 320.2 104.12ZM320.2 102.608C321.096 102.608 321.896 102.408 322.6 102.008C323.32 101.592 323.88 101.008 324.28 100.256C324.68 99.504 324.88 98.648 324.88 97.688C324.88 96.728 324.68 95.872 324.28 95.12C323.88 94.368 323.32 93.792 322.6 93.392C321.896 92.976 321.096 92.768 320.2 92.768C319.304 92.768 318.496 92.976 317.776 93.392C317.072 93.792 316.512 94.368 316.096 95.12C315.696 95.872 315.496 96.728 315.496 97.688C315.496 98.648 315.696 99.504 316.096 100.256C316.512 101.008 317.072 101.592 317.776 102.008C318.496 102.408 319.304 102.608 320.2 102.608ZM335.319 104.12C334.071 104.12 332.951 103.848 331.959 103.304C330.983 102.76 330.215 102 329.655 101.024C329.095 100.032 328.815 98.92 328.815 97.688C328.815 96.456 329.095 95.352 329.655 94.376C330.215 93.4 330.983 92.64 331.959 92.096C332.951 91.552 334.071 91.28 335.319 91.28C336.407 91.28 337.375 91.496 338.223 91.928C339.087 92.344 339.767 92.96 340.263 93.776L338.991 94.64C338.575 94.016 338.047 93.552 337.407 93.248C336.767 92.928 336.071 92.768 335.319 92.768C334.407 92.768 333.583 92.976 332.847 93.392C332.127 93.792 331.559 94.368 331.143 95.12C330.743 95.872 330.543 96.728 330.543 97.688C330.543 98.664 330.743 99.528 331.143 100.28C331.559 101.016 332.127 101.592 332.847 102.008C333.583 102.408 334.407 102.608 335.319 102.608C336.071 102.608 336.767 102.456 337.407 102.152C338.047 101.848 338.575 101.384 338.991 100.76L340.263 101.624C339.767 102.44 339.087 103.064 338.223 103.496C337.359 103.912 336.391 104.12 335.319 104.12ZM354.986 91.376V104H353.354V101.696C352.906 102.464 352.29 103.064 351.506 103.496C350.722 103.912 349.826 104.12 348.818 104.12C347.17 104.12 345.866 103.664 344.906 102.752C343.962 101.824 343.49 100.472 343.49 98.696V91.376H345.194V98.528C345.194 99.856 345.522 100.864 346.178 101.552C346.834 102.24 347.77 102.584 348.986 102.584C350.314 102.584 351.362 102.184 352.13 101.384C352.898 100.568 353.282 99.44 353.282 98V91.376H354.986ZM375.503 91.28C377.087 91.28 378.327 91.736 379.223 92.648C380.135 93.56 380.591 94.904 380.591 96.68V104H378.887V96.848C378.887 95.536 378.567 94.536 377.927 93.848C377.303 93.16 376.415 92.816 375.263 92.816C373.951 92.816 372.919 93.224 372.167 94.04C371.415 94.84 371.039 95.952 371.039 97.376V104H369.335V96.848C369.335 95.536 369.015 94.536 368.375 93.848C367.751 93.16 366.855 92.816 365.687 92.816C364.391 92.816 363.359 93.224 362.591 94.04C361.839 94.84 361.463 95.952 361.463 97.376V104H359.759V91.376H361.391V93.68C361.839 92.912 362.463 92.32 363.263 91.904C364.063 91.488 364.983 91.28 366.023 91.28C367.079 91.28 367.991 91.504 368.759 91.952C369.543 92.4 370.127 93.064 370.511 93.944C370.975 93.112 371.639 92.464 372.503 92C373.383 91.52 374.383 91.28 375.503 91.28ZM396.251 98.216H385.691C385.787 99.528 386.291 100.592 387.203 101.408C388.115 102.208 389.267 102.608 390.659 102.608C391.443 102.608 392.163 102.472 392.819 102.2C393.475 101.912 394.043 101.496 394.523 100.952L395.483 102.056C394.923 102.728 394.219 103.24 393.371 103.592C392.539 103.944 391.619 104.12 390.611 104.12C389.315 104.12 388.163 103.848 387.155 103.304C386.163 102.744 385.387 101.976 384.827 101C384.267 100.024 383.987 98.92 383.987 97.688C383.987 96.456 384.251 95.352 384.779 94.376C385.323 93.4 386.059 92.64 386.987 92.096C387.931 91.552 388.987 91.28 390.155 91.28C391.323 91.28 392.371 91.552 393.299 92.096C394.227 92.64 394.955 93.4 395.483 94.376C396.011 95.336 396.275 96.44 396.275 97.688L396.251 98.216ZM390.155 92.744C388.939 92.744 387.915 93.136 387.083 93.92C386.267 94.688 385.803 95.696 385.691 96.944H394.643C394.531 95.696 394.059 94.688 393.227 93.92C392.411 93.136 391.387 92.744 390.155 92.744ZM406.175 91.28C407.759 91.28 409.015 91.744 409.943 92.672C410.887 93.584 411.359 94.92 411.359 96.68V104H409.655V96.848C409.655 95.536 409.327 94.536 408.671 93.848C408.015 93.16 407.079 92.816 405.863 92.816C404.503 92.816 403.423 93.224 402.623 94.04C401.839 94.84 401.447 95.952 401.447 97.376V104H399.743V91.376H401.375V93.704C401.839 92.936 402.479 92.344 403.295 91.928C404.127 91.496 405.087 91.28 406.175 91.28ZM422.633 103.232C422.313 103.52 421.913 103.744 421.433 103.904C420.969 104.048 420.481 104.12 419.969 104.12C418.785 104.12 417.873 103.8 417.233 103.16C416.593 102.52 416.273 101.616 416.273 100.448V92.816H414.017V91.376H416.273V88.616H417.977V91.376H421.817V92.816H417.977V100.352C417.977 101.104 418.161 101.68 418.529 102.08C418.913 102.464 419.457 102.656 420.161 102.656C420.513 102.656 420.849 102.6 421.169 102.488C421.505 102.376 421.793 102.216 422.033 102.008L422.633 103.232ZM432.017 91.376H433.721V104H432.017V91.376ZM432.881 88.616C432.529 88.616 432.233 88.496 431.993 88.256C431.753 88.016 431.633 87.728 431.633 87.392C431.633 87.072 431.753 86.792 431.993 86.552C432.233 86.312 432.529 86.192 432.881 86.192C433.233 86.192 433.529 86.312 433.769 86.552C434.009 86.776 434.129 87.048 434.129 87.368C434.129 87.72 434.009 88.016 433.769 88.256C433.529 88.496 433.233 88.616 432.881 88.616ZM444.894 91.28C446.478 91.28 447.734 91.744 448.662 92.672C449.606 93.584 450.078 94.92 450.078 96.68V104H448.374V96.848C448.374 95.536 448.046 94.536 447.39 93.848C446.734 93.16 445.798 92.816 444.582 92.816C443.222 92.816 442.142 93.224 441.342 94.04C440.558 94.84 440.166 95.952 440.166 97.376V104H438.462V91.376H440.094V93.704C440.558 92.936 441.198 92.344 442.014 91.928C442.846 91.496 443.806 91.28 444.894 91.28ZM466.145 104.12C464.929 104.12 463.833 103.848 462.857 103.304C461.881 102.744 461.113 101.976 460.553 101C459.993 100.024 459.713 98.92 459.713 97.688C459.713 96.456 459.993 95.352 460.553 94.376C461.113 93.4 461.881 92.64 462.857 92.096C463.833 91.552 464.929 91.28 466.145 91.28C467.361 91.28 468.457 91.552 469.433 92.096C470.409 92.64 471.169 93.4 471.713 94.376C472.273 95.352 472.553 96.456 472.553 97.688C472.553 98.92 472.273 100.024 471.713 101C471.169 101.976 470.409 102.744 469.433 103.304C468.457 103.848 467.361 104.12 466.145 104.12ZM466.145 102.608C467.041 102.608 467.841 102.408 468.545 102.008C469.265 101.592 469.825 101.008 470.225 100.256C470.625 99.504 470.825 98.648 470.825 97.688C470.825 96.728 470.625 95.872 470.225 95.12C469.825 94.368 469.265 93.792 468.545 93.392C467.841 92.976 467.041 92.768 466.145 92.768C465.249 92.768 464.441 92.976 463.721 93.392C463.017 93.792 462.457 94.368 462.041 95.12C461.641 95.872 461.441 96.728 461.441 97.688C461.441 98.648 461.641 99.504 462.041 100.256C462.457 101.008 463.017 101.592 463.721 102.008C464.441 102.408 465.249 102.608 466.145 102.608ZM482.464 91.28C484.048 91.28 485.304 91.744 486.232 92.672C487.176 93.584 487.648 94.92 487.648 96.68V104H485.944V96.848C485.944 95.536 485.616 94.536 484.96 93.848C484.304 93.16 483.368 92.816 482.152 92.816C480.792 92.816 479.712 93.224 478.912 94.04C478.128 94.84 477.736 95.952 477.736 97.376V104H476.032V91.376H477.664V93.704C478.128 92.936 478.768 92.344 479.584 91.928C480.416 91.496 481.376 91.28 482.464 91.28ZM503.313 98.216H492.753C492.849 99.528 493.353 100.592 494.265 101.408C495.177 102.208 496.329 102.608 497.721 102.608C498.505 102.608 499.225 102.472 499.881 102.2C500.537 101.912 501.105 101.496 501.585 100.952L502.545 102.056C501.985 102.728 501.281 103.24 500.433 103.592C499.601 103.944 498.681 104.12 497.673 104.12C496.377 104.12 495.225 103.848 494.217 103.304C493.225 102.744 492.449 101.976 491.889 101C491.329 100.024 491.049 98.92 491.049 97.688C491.049 96.456 491.313 95.352 491.841 94.376C492.385 93.4 493.121 92.64 494.049 92.096C494.993 91.552 496.049 91.28 497.217 91.28C498.385 91.28 499.433 91.552 500.361 92.096C501.289 92.64 502.017 93.4 502.545 94.376C503.073 95.336 503.337 96.44 503.337 97.688L503.313 98.216ZM497.217 92.744C496.001 92.744 494.977 93.136 494.145 93.92C493.329 94.688 492.865 95.696 492.753 96.944H501.705C501.593 95.696 501.121 94.688 500.289 93.92C499.473 93.136 498.449 92.744 497.217 92.744ZM518.319 104.12C517.071 104.12 515.951 103.848 514.959 103.304C513.983 102.76 513.215 102 512.655 101.024C512.095 100.032 511.815 98.92 511.815 97.688C511.815 96.456 512.095 95.352 512.655 94.376C513.215 93.4 513.983 92.64 514.959 92.096C515.951 91.552 517.071 91.28 518.319 91.28C519.407 91.28 520.375 91.496 521.223 91.928C522.087 92.344 522.767 92.96 523.263 93.776L521.991 94.64C521.575 94.016 521.047 93.552 520.407 93.248C519.767 92.928 519.071 92.768 518.319 92.768C517.407 92.768 516.583 92.976 515.847 93.392C515.127 93.792 514.559 94.368 514.143 95.12C513.743 95.872 513.543 96.728 513.543 97.688C513.543 98.664 513.743 99.528 514.143 100.28C514.559 101.016 515.127 101.592 515.847 102.008C516.583 102.408 517.407 102.608 518.319 102.608C519.071 102.608 519.767 102.456 520.407 102.152C521.047 101.848 521.575 101.384 521.991 100.76L523.263 101.624C522.767 102.44 522.087 103.064 521.223 103.496C520.359 103.912 519.391 104.12 518.319 104.12ZM526.423 86.192H528.127V104H526.423V86.192ZM532.868 91.376H534.572V104H532.868V91.376ZM533.732 88.616C533.38 88.616 533.084 88.496 532.844 88.256C532.604 88.016 532.484 87.728 532.484 87.392C532.484 87.072 532.604 86.792 532.844 86.552C533.084 86.312 533.38 86.192 533.732 86.192C534.084 86.192 534.38 86.312 534.62 86.552C534.86 86.776 534.98 87.048 534.98 87.368C534.98 87.72 534.86 88.016 534.62 88.256C534.38 88.496 534.084 88.616 533.732 88.616ZM544.546 104.12C543.298 104.12 542.178 103.848 541.186 103.304C540.21 102.76 539.442 102 538.882 101.024C538.322 100.032 538.042 98.92 538.042 97.688C538.042 96.456 538.322 95.352 538.882 94.376C539.442 93.4 540.21 92.64 541.186 92.096C542.178 91.552 543.298 91.28 544.546 91.28C545.634 91.28 546.602 91.496 547.45 91.928C548.314 92.344 548.994 92.96 549.49 93.776L548.218 94.64C547.802 94.016 547.274 93.552 546.634 93.248C545.994 92.928 545.298 92.768 544.546 92.768C543.634 92.768 542.81 92.976 542.074 93.392C541.354 93.792 540.786 94.368 540.37 95.12C539.97 95.872 539.77 96.728 539.77 97.688C539.77 98.664 539.97 99.528 540.37 100.28C540.786 101.016 541.354 101.592 542.074 102.008C542.81 102.408 543.634 102.608 544.546 102.608C545.298 102.608 545.994 102.456 546.634 102.152C547.274 101.848 547.802 101.384 548.218 100.76L549.49 101.624C548.994 102.44 548.314 103.064 547.45 103.496C546.586 103.912 545.618 104.12 544.546 104.12ZM557.329 97.664L554.353 100.4V104H552.649V86.192H554.353V98.264L561.889 91.376H564.001L558.601 96.536L564.505 104H562.417L557.329 97.664Z" fill="#6C5CE7"/>
<path d="M82.5 13.75H27.5V32.0833H82.5V13.75ZM87.0833 55C85.8678 55 84.702 54.5171 83.8424 53.6576C82.9829 52.798 82.5 51.6322 82.5 50.4167C82.5 49.2011 82.9829 48.0353 83.8424 47.1758C84.702 46.3162 85.8678 45.8333 87.0833 45.8333C88.2989 45.8333 89.4647 46.3162 90.3242 47.1758C91.1838 48.0353 91.6667 49.2011 91.6667 50.4167C91.6667 51.6322 91.1838 52.798 90.3242 53.6576C89.4647 54.5171 88.2989 55 87.0833 55ZM73.3333 87.0833H36.6667V64.1667H73.3333V87.0833ZM87.0833 36.6667H22.9167C19.2699 36.6667 15.7726 38.1153 13.1939 40.6939C10.6153 43.2726 9.16666 46.7699 9.16666 50.4167V77.9167H27.5V96.25H82.5V77.9167H100.833V50.4167C100.833 46.7699 99.3847 43.2726 96.806 40.6939C94.2274 38.1153 90.73 36.6667 87.0833 36.6667Z" fill="#6C5CE7"/>
</svg>
